# xmcd CD database file
#
# Track frame offsets:
#	150
#	18282
#	35209
#	54844
#	73384
#	90736
#	107324
#	123625
#	141696
#	159037
#
# Disc length: 2475 seconds
#
# Revision: 0
# Processed by: cddbd v1.5.2PL0 Copyright (c) Steve Scherf et al.
# Submitted via: CDex 1.70beta2
#
DISCID=8709a90a
DTITLE=Luna llena - Homenaje a Pimpinela
DYEAR=2009
DGENRE=Salsa
TTITLE0=Vivir sin ti no puedo
TTITLE1=Olvídame y pega la vuelta
TTITLE2=Me hace falta una flor
TTITLE3=Ahora decide
TTITLE4=A esa
TTITLE5=Ese hombre
TTITLE6=Dímelo delante de ella
TTITLE7=Ahora estoy con él
TTITLE8=Valiente
TTITLE9=Medley
EXTD=YEAR: 2009
EXTT0=
EXTT1=
EXTT2=
EXTT3=
EXTT4=
EXTT5=
EXTT6=
EXTT7=
EXTT8=
EXTT9=
PLAYORDER=
